<svg xmlns="http://www.w3.org/2000/svg" viewBox="0 0 512 512" width="512" height="512">
  <circle cx="256" cy="256" r="256" fill="#FF3B00"/>
  <path fill="#FFFFFF" d="M383.5 152.9c-29.6 47.3-84.1 98.6-128.8 118.2-29.8 13.1-54.8 13.9-76.7-2.4-18.8-13.9-25.1-37.6-12.5-58 12.5-20.4 37.6-26.9 61.1-20.4 25.1 6.5 48.6 22.9 70.5 44.1-45.4 19.6-98.7 16.3-139.4-8.2-11-6.5-18.8-14.7-23.5-24.5 17.2 1.6 34.4-1.6 50.1-9.8 28.2-14.7 50.1-40.8 68.9-70.2 25.1-39.2 59.5-70.2 103.4-88.2 18.8-8.2 39.2-14.7 59.5-16.3-11 19.6-18.8 40.8-23.5 63.7-4.7 22.9-4.7 47.4 0 70.3z"/>
</svg>